PathFileType	4	(X/Y/Z)	/Users/itak/Documents/Research/Walk-IL/dataset/trc/00095_00006.trc
DataRate	CameraRate	NumFrames	NumMarkers	Units	OrigDataRate	OrigDataStartFrame	OrigNumFrames
100.000000	100.000000	4	53	mm	100.000000	200	534
Frame#	Time	RPSI			LPSI			L3			STRN			T10			C7			CLAV			RBAK			LBAK			LSHO			LUPA			LAEL			LAOL			LWTS			LWPS			LFRA			LIFD			LHPS			LHTS			RSHO			RUPA			RAEL			RAOL			RWTS			RWPS			RFRA			RIFD			RHTS			RHPS			RBHD			LFHD			RFHD			LBHD			LHIP			RHIP			RASI			LASI			LKNE			LTHI			LANK			LTIP			LTOE			LMT1			LMT5			LHEE			RKNE			RTHI			RANK			RTIP			RTOE			RMT1			RMT5			RHEE			
		X1	Y1	Z1	X2	Y2	Z2	X3	Y3	Z3	X4	Y4	Z4	X5	Y5	Z5	X6	Y6	Z6	X7	Y7	Z7	X8	Y8	Z8	X9	Y9	Z9	X10	Y10	Z10	X11	Y11	Z11	X12	Y12	Z12	X13	Y13	Z13	X14	Y14	Z14	X15	Y15	Z15	X16	Y16	Z16	X17	Y17	Z17	X18	Y18	Z18	X19	Y19	Z19	X20	Y20	Z20	X21	Y21	Z21	X22	Y22	Z22	X23	Y23	Z23	X24	Y24	Z24	X25	Y25	Z25	X26	Y26	Z26	X27	Y27	Z27	X28	Y28	Z28	X29	Y29	Z29	X30	Y30	Z30	X31	Y31	Z31	X32	Y32	Z32	X33	Y33	Z33	X34	Y34	Z34	X35	Y35	Z35	X36	Y36	Z36	X37	Y37	Z37	X38	Y38	Z38	X39	Y39	Z39	X40	Y40	Z40	X41	Y41	Z41	X42	Y42	Z42	X43	Y43	Z43	X44	Y44	Z44	X45	Y45	Z45	X46	Y46	Z46	X47	Y47	Z47	X48	Y48	Z48	X49	Y49	Z49	X50	Y50	Z50	X51	Y51	Z51	X52	Y52	Z52	X53	Y53	Z53	

201	2	-1233.65478515625	1031.92333984375	49.08798599243164	-1247.943603515625	1019.511047363281	-121.9632186889648	-1235.893920898438	1089.06005859375	-51.08232116699219	-962.3766479492188	1261.059692382812	-41.99884796142578	-1237.042846679688	1218.148559570312	-67.99971008300781	-1152.783935546875	1478.355590820312	-67.61265563964844	-984.3441772460938	1377.568359375	-45.93555450439453	-1235.912109375	1347.0771484375	0.9491554498672485	-1165.7216796875	1442.799072265625	-172.1082000732422	-1053.879150390625	1439.054809570312	-231.2691650390625	-1065.903930664062	1313.046142578125	-312.1253967285156	-1045.303100585938	1093.905029296875	-324.4078979492188	-1126.413940429688	1083.427856445312	-257.6434631347656	-948.1495361328125	891.5689697265625	-186.1379547119141	-985.7814331054688	857.1889038085938	-253.3053283691406	-1011.697021484375	988.451416015625	-303.6371154785156	-926.1583251953125	719.3306274414062	-116.8124084472656	-947.503662109375	786.6973266601562	-221.5687561035156	-916.7833862304688	814.5639038085938	-162.5865783691406	-1113.300048828125	1435.7353515625	114.9882125854492	-1139.151123046875	1368.2080078125	175.8880767822266	-1205.290283203125	1110.7333984375	196.7724304199219	-1172.165405273438	1082.964599609375	106.7367172241211	-1099.78662109375	840.9898071289062	199.8758392333984	-1180.970825195312	839.876220703125	233.4312744140625	-1205.04443359375	1032.28369140625	207.9723052978516	-1123.71337890625	651.4158935546875	191.5782012939453	-1093.201049804688	737.51416015625	208.6243133544922	-1162.335571289062	746.5902099609375	249.5433807373047	-1137.4365234375	1624.118530273438	-8.045462608337402	-930.64306640625	1693.23974609375	-48.89315032958984	-989.3641357421875	1674.208984375	61.13993453979492	-1082.717895507812	1651.280517578125	-131.8488922119141	-1152.034301757812	945.8926391601562	-213.5494537353516	-1162.968383789062	963.058349609375	132.1744232177734	-1041.900512695312	974.3770751953125	101.3565979003906	-1037.185180664062	950.7412719726562	-165.7791900634766	-1131.581420898438	482.4688415527344	-149.5540771484375	-1146.506103515625	624.85107421875	-188.2829437255859	-1327.615600585938	52.01782608032227	-143.490478515625	-1239.027954101562	255.3693389892578	-159.2206268310547	-1122.131958007812	46.06322479248047	-155.7155303955078	-1166.747924804688	46.53440093994141	-97.94566345214844	-1229.067993164062	41.94078826904297	-191.0848541259766	-1373.844604492188	52.73558044433594	-62.86421966552734	-953.6286010742188	536.4913940429688	103.6103134155273	-1039.543334960938	794.6876831054688	133.8204650878906	-904.2019653320312	50.68030548095703	81.21644592285156	-941.9098510742188	411.7501220703125	108.2160415649414	-702.34912109375	123.9525680541992	79.72666168212891	-750.3431396484375	104.4883880615234	31.82955551147461	-794.644775390625	90.17377471923828	117.9383544921875	-938.5083618164062	42.08010864257812	15.32262134552002	
202	2.01	-1228.094604492188	1030.861938476562	49.79780960083008	-1242.411254882812	1018.61669921875	-121.2487030029297	-1230.272338867188	1088.063842773438	-50.29197692871094	-957.0131225585938	1260.013305664062	-40.63339614868164	-1231.52490234375	1217.141845703125	-67.16960144042969	-1147.33447265625	1477.372314453125	-66.31331634521484	-978.8861083984375	1376.579345703125	-44.41070175170898	-1230.396362304688	1345.933471679688	1.977752685546875	-1160.019653320312	1441.938110351562	-170.9061737060547	-1048.031127929688	1438.261474609375	-229.7807006835938	-1059.443237304688	1312.22216796875	-310.6644592285156	-1037.913208007812	1093.180297851562	-322.8466491699219	-1119.153930664062	1082.362426757812	-256.5050354003906	-940.92236328125	891.1509399414062	-183.9956359863281	-977.76611328125	856.6366577148438	-251.4522399902344	-1003.977355957031	987.8292846679688	-301.8766174316406	-918.9093627929688	719.0234985351562	-114.5116195678711	-939.500244140625	786.2774047851562	-219.4947052001953	-909.38427734375	814.2192993164062	-160.1947174072266	-1108.036376953125	1434.512817382812	116.3288269042969	-1134.015258789062	1367.031127929688	177.2022399902344	-1200.3701171875	1109.541381835938	197.5642242431641	-1167.091796875	1081.818969726562	107.5567092895508	-1095.8896484375	839.4009399414062	200.7041931152344	-1177.207885742188	838.7328491210938	234.2411193847656	-1200.37890625	1031.201293945312	208.6640472412109	-1121.097412109375	649.92041015625	192.2785491943359	-1090.111572265625	735.8514404296875	209.3758850097656	-1159.101684570312	745.3307495117188	250.3135833740234	-1132.435791015625	1622.944702148438	-7.155923843383789	-925.5319213867188	1692.503784179688	-46.68993377685547	-984.8739624023438	1673.3125	63.00551605224609	-1076.960327148438	1650.28759765625	-130.5841979980469	-1146.559814453125	945.0120239257812	-212.8987274169922	-1157.326538085938	961.904541015625	132.8950958251953	-1036.355102539062	973.1619873046875	102.0816802978516	-1031.69580078125	949.739013671875	-165.0498962402344	-1128.762817382812	481.55322265625	-149.2754669189453	-1142.766479492188	624.1271362304688	-187.7434997558594	-1327.575561523438	52.10459899902344	-143.6414184570312	-1237.641723632812	255.2057800292969	-159.1283264160156	-1122.17529296875	46.01947402954102	-155.7039642333984	-1166.783081054688	46.51948547363281	-97.99555206298828	-1229.075439453125	41.72225189208984	-191.1730804443359	-1373.968627929688	53.3811149597168	-63.25253295898438	-949.0027465820312	534.8681640625	103.7333450317383	-1034.963623046875	793.0235595703125	135.1600646972656	-893.0155029296875	50.38604736328125	80.34004974365234	-936.195556640625	410.923095703125	107.9612731933594	-692.203125	126.3672256469727	81.68278503417969	-739.2377319335938	106.3218536376953	33.25579071044922	-784.4992065429688	91.4302978515625	118.7219619750977	-926.3533935546875	41.19436264038086	14.52194690704346	
203	2.02	-1222.409057617188	1029.754638671875	50.55890274047852	-1236.735961914062	1017.682556152344	-120.4711608886719	-1224.5068359375	1087.016845703125	-49.43307876586914	-951.5715942382812	1258.941162109375	-39.18618011474609	-1225.88134765625	1216.095703125	-66.23066711425781	-1141.790161132812	1476.355224609375	-64.85820770263672	-973.3236083984375	1375.571411132812	-42.78112030029297	-1224.757568359375	1344.739868164062	3.153239250183105	-1154.239501953125	1441.059692382812	-169.5601959228516	-1042.109008789062	1437.471435546875	-228.1582489013672	-1052.914184570312	1311.411865234375	-309.0822143554688	-1030.4345703125	1092.482055664062	-321.1707763671875	-1111.841918945312	1081.3125	-255.2472381591797	-933.6306762695312	890.6422729492188	-181.9239654541016	-969.7294311523438	856.0338134765625	-249.6632843017578	-996.208740234375	987.20703125	-300.079345703125	-911.719970703125	718.5772705078125	-112.4179992675781	-931.4911499023438	785.776611328125	-217.546630859375	-901.9677734375	813.7421264648438	-157.9336242675781	-1102.64794921875	1433.250244140625	117.802001953125	-1128.708129882812	1365.79150390625	178.6557922363281	-1195.217895507812	1108.287353515625	198.5248870849609	-1161.844360351562	1080.622192382812	108.5148010253906	-1091.667236328125	837.7886962890625	201.6074523925781	-1173.110107421875	837.5341186523438	235.1641845703125	-1195.471923828125	1030.048583984375	209.5105438232422	-1118.115112304688	648.4124145507812	193.0198822021484	-1086.648315429688	734.1685180664062	210.1851196289062	-1155.489013671875	744.0234985351562	251.1692810058594	-1127.355834960938	1621.770263671875	-6.119274139404297	-920.3256225585938	1691.724365234375	-44.36352157592773	-980.27197265625	1672.376831054688	64.99916076660156	-1071.148681640625	1649.279541015625	-129.1636810302734	-1140.971313476562	944.0986328125	-212.1976623535156	-1151.608520507812	960.7371826171875	133.6376800537109	-1030.657104492188	971.9087524414062	102.8543014526367	-1026.067138671875	948.7118530273438	-164.2904357910156	-1125.872924804688	480.6156616210938	-148.9920959472656	-1138.934936523438	623.3790283203125	-187.1842346191406	-1327.55126953125	52.22173309326172	-143.8611297607422	-1236.215209960938	255.0550384521484	-159.0552368164062	-1122.25927734375	45.99673461914062	-155.6841735839844	-1166.850952148438	46.50710296630859	-98.05157470703125	-1229.0869140625	41.48750686645508	-191.2795867919922	-1374.1474609375	54.12821197509766	-63.71504592895508	-944.1783447265625	533.2557373046875	103.9989700317383	-1030.158081054688	791.384765625	136.5859069824219	-883.046875	49.92499160766602	79.41942596435547	-930.5339965820312	409.9772644042969	107.7952423095703	-683.1320190429688	128.0179290771484	83.74407958984375	-729.1604614257812	107.5481948852539	34.73433303833008	-775.512939453125	92.2022705078125	119.4925003051758	-915.3834228515625	40.33729553222656	13.600510597229	
204	2.03	-1216.590454101562	1028.60498046875	51.38228988647461	-1230.912719726562	1016.712829589844	-119.6215438842773	-1218.599731445312	1085.91796875	-48.50631713867188	-946.0476684570312	1257.848876953125	-37.65632247924805	-1220.106689453125	1215.005615234375	-65.18107604980469	-1136.156005859375	1475.303100585938	-63.24748229980469	-967.6572265625	1374.54443359375	-41.04190444946289	-1219.005126953125	1343.492919921875	4.471531391143799	-1148.38427734375	1440.161865234375	-168.0700531005859	-1036.112060546875	1436.685424804688	-226.400146484375	-1046.319213867188	1310.615234375	-307.3786315917969	-1022.874572753906	1091.807495117188	-319.3787536621094	-1104.495361328125	1080.281372070312	-253.8713989257812	-926.2786254882812	890.0347900390625	-179.9274597167969	-961.7051391601562	855.379638671875	-247.9509887695312	-988.4051513671875	986.5834350585938	-298.2504577636719	-904.5907592773438	717.9833374023438	-110.5424499511719	-923.4856567382812	785.1918334960938	-215.7301483154297	-894.5465087890625	813.1373901367188	-155.8246917724609	-1097.14111328125	1431.94384765625	119.4088134765625	-1123.23876953125	1364.481567382812	180.2443389892578	-1189.836303710938	1106.964233398438	199.6549377441406	-1156.42333984375	1079.36865234375	109.6135559082031	-1087.124389648438	836.154296875	202.5872192382812	-1168.667358398438	836.2720336914062	236.2091217041016	-1190.318115234375	1028.818359375	210.5178375244141	-1114.748779296875	646.8848266601562	193.8167114257812	-1082.788330078125	732.4614868164062	211.0589904785156	-1151.483276367188	742.6611938476562	252.1163635253906	-1122.196655273438	1620.59033203125	-4.931093215942383	-915.02294921875	1690.898315429688	-41.90403747558594	-975.5639038085938	1671.394165039062	67.12715911865234	-1065.28271484375	1648.256469726562	-127.5817794799805	-1135.2666015625	943.1569213867188	-211.4398040771484	-1145.78955078125	959.5617065429688	134.4236602783203	-1024.799438476562	970.6217041015625	103.6728363037109	-1020.306823730469	947.663330078125	-163.4985198974609	-1122.913330078125	479.6607971191406	-148.6963806152344	-1135.017700195312	622.609375	-186.6059417724609	-1327.540893554688	52.38088989257812	-144.1548156738281	-1234.75927734375	254.9248962402344	-159.0112915039062	-1122.380493164062	45.99277114868164	-155.6546020507812	-1166.94775390625	46.49710083007812	-98.11300659179688	-1229.101928710938	41.23806762695312	-191.4070587158203	-1374.378662109375	54.97089385986328	-64.24678039550781	-939.1465454101562	531.6669311523438	104.4160385131836	-1025.10205078125	789.7886962890625	138.08837890625	-874.3513793945312	49.27622985839844	78.46001434326172	-924.9126586914062	408.896240234375	107.7140045166016	-675.1614990234375	128.8266143798828	85.82980346679688	-720.182373046875	108.0933151245117	36.19804000854492	-767.7283325195312	92.42216491699219	120.2024993896484	-905.6979370117188	39.48984146118164	12.5461950302124	
